<svg width="26" height="25" viewBox="0 0 26 25" fill="none" xmlns="http://www.w3.org/2000/svg">
<path d="M24.8403 8.73207L15.5186 1.9457C14.742 1.3815 13.8067 1.07764 12.8467 1.07764C11.8868 1.07764 10.9514 1.3815 10.1748 1.9457L0.820312 8.73207" fill="none"/>
<path d="M24.8403 8.73207L15.5186 1.9457C14.742 1.3815 13.8067 1.07764 12.8467 1.07764C11.8868 1.07764 10.9514 1.3815 10.1748 1.9457L0.820312 8.73207" stroke="#8E949A" stroke-width="1.5" stroke-linecap="round" stroke-linejoin="round"/>
<path d="M3.30078 6.91797V15.3654C3.30078 21.6928 3.91276 22.8402 10.7319 22.7856L14.9064 22.731C21.2885 22.6763 22.3376 21.5179 22.3376 15.1906V6.91797" fill="none"/>
<path d="M3.30078 6.91797V15.3654C3.30078 21.6928 3.91276 22.8402 10.7319 22.7856L14.9064 22.731C21.2885 22.6763 22.3376 21.5179 22.3376 15.1906V6.91797" stroke="#8E949A" stroke-width="1.5" stroke-linecap="round" stroke-linejoin="round"/>
<path d="M16.305 23.742V19.3708C16.305 16.4093 16.0099 15.8738 12.8298 15.8956C9.83552 15.8956 9.34375 16.4639 9.34375 19.4254V23.7967" fill="none"/>
<path d="M16.305 23.742V19.3708C16.305 16.4093 16.0099 15.8738 12.8298 15.8956C9.83552 15.8956 9.34375 16.4639 9.34375 19.4254V23.7967" stroke="#8E949A" stroke-width="1.5" stroke-linecap="round" stroke-linejoin="round"/>
</svg>
