<svg width="20" height="25" viewBox="0 0 20 25" fill="none" xmlns="http://www.w3.org/2000/svg">
<path d="M13.6355 8.01855H5.85547" stroke="#8E949A" stroke-width="1.5" stroke-linecap="round" stroke-linejoin="round"/>
<path d="M7.34375 8.01855V12.1786C7.34375 14.2686 7.55376 14.6486 9.79376 14.6286C12.0338 14.6086 12.2538 14.2385 12.2538 12.1485V8.01855" stroke="#8E949A" stroke-width="1.5" stroke-linecap="round" stroke-linejoin="round"/>
<path d="M9.08486 23.0685C9.2756 23.2193 9.51166 23.3014 9.75485 23.3014C9.99804 23.3014 10.2341 23.2193 10.4249 23.0685C12.5249 21.4785 18.6848 16.2785 18.6548 10.2085C18.6949 9.01394 18.4942 7.82355 18.0647 6.70819C17.6352 5.59283 16.9857 4.57527 16.1548 3.71609C15.324 2.85692 14.3287 2.17371 13.2284 1.70709C12.128 1.24048 10.945 1 9.74984 1C8.55464 1 7.37168 1.24048 6.27133 1.70709C5.17098 2.17371 4.17573 2.85692 3.34487 3.71609C2.51402 4.57527 1.86452 5.59283 1.43502 6.70819C1.00553 7.82355 0.804809 9.01394 0.844844 10.2085C0.844844 16.2085 7.00486 21.4785 9.08486 23.0785" stroke="#8E949A" stroke-width="1.5" stroke-linecap="round" stroke-linejoin="round"/>
</svg>
