<svg width="24" height="24" viewBox="0 0 24 24" fill="none" xmlns="http://www.w3.org/2000/svg">
<path d="M15.1398 1H8.53984C4.28725 1 0.839844 4.4474 0.839844 8.7V15.3C0.839844 19.5526 4.28725 23 8.53984 23H15.1398C19.3924 23 22.8398 19.5526 22.8398 15.3V8.7C22.8398 4.4474 19.3924 1 15.1398 1Z" stroke="#8E949A" stroke-width="1.5" stroke-linecap="round" stroke-linejoin="round"/>
<path d="M4.64062 12H19.0406" stroke="#8E949A" stroke-width="1.5" stroke-linecap="round" stroke-linejoin="round"/>
<path d="M19.0412 8.59985C18.9112 6.08985 17.7912 4.96985 15.2812 4.84985" stroke="#8E949A" stroke-width="1.5" stroke-linecap="round" stroke-linejoin="round"/>
<path d="M4.64062 8.59985C4.77062 6.08985 5.89062 4.96985 8.40062 4.84985" stroke="#8E949A" stroke-width="1.5" stroke-linecap="round" stroke-linejoin="round"/>
<path d="M4.64062 15.45C4.77062 17.96 5.89062 19.0799 8.40062 19.2099" stroke="#8E949A" stroke-width="1.5" stroke-linecap="round" stroke-linejoin="round"/>
<path d="M19.0412 15.45C18.9112 17.96 17.7912 19.0799 15.2812 19.2099" stroke="#8E949A" stroke-width="1.5" stroke-linecap="round" stroke-linejoin="round"/>
</svg>
