<svg width="24" height="24" viewBox="0 0 24 24" fill="none" xmlns="http://www.w3.org/2000/svg">
<path d="M21.308 22.9901V11.11C21.308 9.96005 20.838 9.55005 19.748 9.55005H18.978C17.888 9.55005 17.418 9.96005 17.418 11.11V22.9901" stroke="#8E949A" stroke-width="1.5" stroke-linecap="round" stroke-linejoin="round"/>
<path d="M13.7884 22.9901V14.36C13.7884 13.21 13.3184 12.8 12.2284 12.8H11.4484C10.3584 12.8 9.89844 13.21 9.89844 14.36V22.9901" stroke="#8E949A" stroke-width="1.5" stroke-linecap="round" stroke-linejoin="round"/>
<path d="M6.22984 22.9901V17.6301C6.22984 16.4801 5.75985 16.0701 4.66985 16.0701H3.88985C2.79985 16.0701 2.33984 16.4801 2.33984 17.6301V23.0101" stroke="#8E949A" stroke-width="1.5" stroke-linecap="round" stroke-linejoin="round"/>
<path d="M0.839844 22.99H22.8398" stroke="#8E949A" stroke-width="1.5" stroke-linecap="round" stroke-linejoin="round"/>
<path d="M2.32812 7.81001L20.4081 3.26001" stroke="#8E949A" stroke-width="1.5" stroke-linecap="round" stroke-linejoin="round"/>
<path d="M19.3097 6.63L20.7297 4.05C20.8834 3.7715 20.9202 3.44336 20.8321 3.13771C20.744 2.83206 20.5381 2.57391 20.2597 2.42L17.6797 1" stroke="#8E949A" stroke-width="1.5" stroke-linecap="round" stroke-linejoin="round"/>
</svg>
