<svg width="26" height="26" viewBox="0 0 26 26" fill="none" xmlns="http://www.w3.org/2000/svg">
<path d="M6.03086 10.9257H8.10743C10.184 10.9257 11.2223 9.84893 11.2223 7.69546V5.54198C11.2223 3.38851 10.184 2.31177 8.10743 2.31177H6.03086C3.9543 2.31177 2.91602 3.38851 2.91602 5.54198V7.69546C2.91602 9.84893 3.9543 10.9257 6.03086 10.9257Z" stroke="#8E949A" stroke-width="1.5" stroke-miterlimit="10" stroke-linecap="round" stroke-linejoin="round"/>
<path d="M18.4898 10.9257H20.5664C22.643 10.9257 23.6813 9.84893 23.6813 7.69546V5.54198C23.6813 3.38851 22.643 2.31177 20.5664 2.31177H18.4898C16.4133 2.31177 15.375 3.38851 15.375 5.54198V7.69546C15.375 9.84893 16.4133 10.9257 18.4898 10.9257Z" stroke="#8E949A" stroke-width="1.5" stroke-miterlimit="10" stroke-linecap="round" stroke-linejoin="round"/>
<path d="M18.4898 23.8466H20.5664C22.643 23.8466 23.6813 22.7698 23.6813 20.6164V18.4629C23.6813 16.3094 22.643 15.2327 20.5664 15.2327H18.4898C16.4133 15.2327 15.375 16.3094 15.375 18.4629V20.6164C15.375 22.7698 16.4133 23.8466 18.4898 23.8466Z" stroke="#8E949A" stroke-width="1.5" stroke-miterlimit="10" stroke-linecap="round" stroke-linejoin="round"/>
<path d="M6.03086 23.8466H8.10743C10.184 23.8466 11.2223 22.7698 11.2223 20.6164V18.4629C11.2223 16.3094 10.184 15.2327 8.10743 15.2327H6.03086C3.9543 15.2327 2.91602 16.3094 2.91602 18.4629V20.6164C2.91602 22.7698 3.9543 23.8466 6.03086 23.8466Z" stroke="#8E949A" stroke-width="1.5" stroke-miterlimit="10" stroke-linecap="round" stroke-linejoin="round"/>
</svg>
