<svg width="26" height="26" viewBox="0 0 26 26" fill="none" xmlns="http://www.w3.org/2000/svg">
<path d="M19.0936 3.83821C19.0936 6.33166 14.5133 9.18897 14.5133 9.18897C14.5133 9.18897 9.93308 6.35306 9.93308 3.83821C9.92574 3.28938 10.1061 2.75452 10.4444 2.32224C10.7826 1.88997 11.2584 1.58622 11.7929 1.46134C12.3274 1.33646 12.8885 1.39794 13.3832 1.63559C13.878 1.87324 14.2767 2.27279 14.5133 2.76805C14.7499 2.27279 15.1487 1.87324 15.6434 1.63559C16.1382 1.39794 16.6993 1.33646 17.2338 1.46134C17.7683 1.58622 18.244 1.88997 18.5823 2.32224C18.9205 2.75452 19.1009 3.28938 19.0936 3.83821Z" stroke="#004D43" stroke-width="1.5" stroke-linecap="round" stroke-linejoin="round"/>
<path d="M4.19666 9.92725H3.24423C1.90653 9.92725 1.33936 10.4088 1.33936 11.7358V23.0794C1.33936 24.4171 1.90653 24.8987 3.24423 24.8987H4.19666C5.53435 24.8987 6.10153 24.4171 6.10153 23.0794V11.7358C6.13363 10.4088 5.53435 9.92725 4.19666 9.92725Z" stroke="#004D43" stroke-width="1.5" stroke-linecap="round" stroke-linejoin="round"/>
<path d="M6.39136 22.5014L14.578 22.6405C15.5979 22.6521 16.5884 22.2992 17.3711 21.6453L23.9419 16.53C24.4214 16.1635 24.7466 15.6309 24.8535 15.0368C24.9605 14.4428 24.8414 13.8302 24.5197 13.3195C24.2194 12.8284 23.7537 12.4606 23.2064 12.2821C22.6592 12.1036 22.0661 12.1261 21.534 12.3457L16.4401 14.4218" stroke="#004D43" stroke-width="1.5" stroke-linecap="round" stroke-linejoin="round"/>
<path d="M11.8277 17.7394L14.9526 16.8833C15.4176 16.7671 15.8247 16.4861 16.0982 16.0925C16.3718 15.6989 16.4933 15.2194 16.4401 14.743C16.3923 14.3303 16.2172 13.9426 15.9392 13.6339C15.6611 13.3252 15.2939 13.1106 14.8884 13.0201L6.39136 12.8381" stroke="#004D43" stroke-width="1.5" stroke-linecap="round" stroke-linejoin="round"/>
</svg>
