<svg width="24" height="25" viewBox="0 0 24 25" fill="none" xmlns="http://www.w3.org/2000/svg">
<path d="M3.78955 13.1005V18.1005C3.78955 22.5905 4.22954 23.4005 9.05954 23.3705H15.5195C20.0595 23.3705 20.7995 22.5105 20.7995 18.0205V13.0205" stroke="white" stroke-width="1.5" stroke-linecap="round" stroke-linejoin="round"/>
<path d="M1.33936 10.2507V9.06073C1.33936 7.44073 1.93934 6.75073 3.63934 6.75073H20.9493C22.6493 6.75073 23.2594 7.44073 23.2594 9.05073V10.2507C23.2594 11.8707 22.6493 12.5607 20.9493 12.5607H3.63934C1.93934 12.5207 1.33936 11.8307 1.33936 10.2507Z" stroke="white" stroke-width="1.5" stroke-linecap="round" stroke-linejoin="round"/>
<path d="M18.8094 3.25063C18.5436 2.9065 18.2046 2.62584 17.8169 2.42901C17.4292 2.23217 17.0025 2.12408 16.5678 2.1126C16.1332 2.10111 15.7014 2.1865 15.3039 2.36258C14.9063 2.53867 14.5529 2.80102 14.2693 3.13063C13.511 4.18374 13.0202 5.40554 12.8394 6.69063H15.5994C18.4694 6.71063 20.5694 5.25063 18.8094 3.25063Z" stroke="white" stroke-width="1.5" stroke-linecap="round" stroke-linejoin="round"/>
<path d="M11.1794 2.57063C10.8464 2.19076 10.4339 1.88889 9.97106 1.68647C9.50825 1.48404 9.00652 1.38603 8.50155 1.3994C7.99658 1.41276 7.50077 1.53718 7.04931 1.7638C6.59785 1.99042 6.20182 2.31368 5.8894 2.71063C3.8894 5.00063 6.27941 6.71063 9.61941 6.71063H12.8394C12.6259 5.21753 12.0565 3.79765 11.1794 2.57063Z" stroke="white" stroke-width="1.5" stroke-linecap="round" stroke-linejoin="round"/>
</svg>
