<svg width="27" height="27" viewBox="0 0 27 27" fill="none" xmlns="http://www.w3.org/2000/svg">
<path d="M13.0456 13.3581C12.4668 13.3581 11.9117 13.1282 11.5024 12.7189C11.0931 12.3096 10.8632 11.7545 10.8632 11.1756C10.8632 10.5968 11.0931 10.0417 11.5024 9.6324C11.9117 9.22311 12.4668 8.99316 13.0456 8.99316H15.5555" stroke="#004D43" stroke-width="1.5" stroke-linecap="round" stroke-linejoin="round"/>
<path d="M13.0458 13.3582H14.1371C14.7159 13.3582 15.271 13.5881 15.6803 13.9974C16.0896 14.4067 16.3195 14.9618 16.3195 15.5406C16.3195 16.1195 16.0896 16.6746 15.6803 17.0839C15.271 17.4932 14.7159 17.7231 14.1371 17.7231H11.6272" stroke="#004D43" stroke-width="1.5" stroke-linecap="round" stroke-linejoin="round"/>
<path d="M13.5699 7.64014V9.03692" stroke="#004D43" stroke-width="1.5" stroke-linecap="round" stroke-linejoin="round"/>
<path d="M13.5699 17.6794V19.0762" stroke="#004D43" stroke-width="1.5" stroke-linecap="round" stroke-linejoin="round"/>
<path d="M20.2804 13.3582H21.1752" stroke="#004D43" stroke-width="1.5" stroke-linecap="round" stroke-linejoin="round"/>
<path d="M5.97388 13.3582H6.86869" stroke="#004D43" stroke-width="1.5" stroke-linecap="round" stroke-linejoin="round"/>
<path d="M13.5689 25.3182C20.1742 25.3182 25.5289 19.9635 25.5289 13.3582C25.5289 6.75287 20.1742 1.39819 13.5689 1.39819C6.96355 1.39819 1.60889 6.75287 1.60889 13.3582C1.60889 19.9635 6.96355 25.3182 13.5689 25.3182Z" stroke="#004D43" stroke-width="1.5" stroke-linecap="round" stroke-linejoin="round"/>
<path d="M13.0456 13.3581C12.4668 13.3581 11.9117 13.1282 11.5024 12.7189C11.0931 12.3096 10.8632 11.7545 10.8632 11.1756C10.8632 10.5968 11.0931 10.0417 11.5024 9.6324C11.9117 9.22311 12.4668 8.99316 13.0456 8.99316H15.5555" stroke="#004D43" stroke-width="1.5" stroke-linecap="round" stroke-linejoin="round"/>
<path d="M13.0458 13.3582H14.1371C14.7159 13.3582 15.271 13.5881 15.6803 13.9974C16.0896 14.4067 16.3195 14.9618 16.3195 15.5406C16.3195 16.1195 16.0896 16.6746 15.6803 17.0839C15.271 17.4932 14.7159 17.7231 14.1371 17.7231H11.6272" stroke="#004D43" stroke-width="1.5" stroke-linecap="round" stroke-linejoin="round"/>
<path d="M13.5699 7.64014V9.03692" stroke="#004D43" stroke-width="1.5" stroke-linecap="round" stroke-linejoin="round"/>
<path d="M13.5699 17.6794V19.0762" stroke="#004D43" stroke-width="1.5" stroke-linecap="round" stroke-linejoin="round"/>
<path d="M20.2804 13.3582H21.1752" stroke="#004D43" stroke-width="1.5" stroke-linecap="round" stroke-linejoin="round"/>
<path d="M5.97388 13.3582H6.86869" stroke="#004D43" stroke-width="1.5" stroke-linecap="round" stroke-linejoin="round"/>
<path d="M13.5689 25.3182C20.1742 25.3182 25.5289 19.9635 25.5289 13.3582C25.5289 6.75287 20.1742 1.39819 13.5689 1.39819C6.96355 1.39819 1.60889 6.75287 1.60889 13.3582C1.60889 19.9635 6.96355 25.3182 13.5689 25.3182Z" stroke="#004D43" stroke-width="1.5" stroke-linecap="round" stroke-linejoin="round"/>
</svg>
