<svg width="24" height="29" viewBox="0 0 24 29" fill="none" xmlns="http://www.w3.org/2000/svg">
<path d="M1.46936 22.8113H22.1239" stroke="#004D43" stroke-width="1.5" stroke-linecap="round" stroke-linejoin="round"/>
<path d="M7.84937 27.4272H15.8152C21.402 27.4272 22.3134 26.3738 22.3134 20.8343V7.89717C22.3134 3.41118 21.3902 1.35165 15.8034 1.39899H7.84937C1.93117 1.39899 1.33936 3.50587 1.33936 7.99186V20.929C1.35119 26.4685 1.89567 27.4745 7.84937 27.4272Z" stroke="#004D43" stroke-width="1.5" stroke-linecap="round" stroke-linejoin="round"/>
<path d="M8.94997 14.6794C9.0589 15.1043 9.30442 15.4815 9.64875 15.7531C9.99308 16.0247 10.4171 16.1756 10.8556 16.1827H13.0809C13.5424 16.1642 13.9782 15.9653 14.2947 15.6289C14.6112 15.2925 14.7831 14.8453 14.7735 14.3835C14.8248 14.0015 14.732 13.6141 14.5132 13.2968C14.2943 12.9795 13.9651 12.755 13.5898 12.6673L10.0389 11.4126C9.66454 11.3274 9.33554 11.1053 9.11654 10.7899C8.89754 10.4746 8.80435 10.0887 8.85527 9.70816C8.84897 9.47654 8.88838 9.24594 8.97123 9.02955C9.05409 8.81316 9.17877 8.61523 9.33816 8.44704C9.49755 8.27886 9.68851 8.14374 9.90014 8.04939C10.1118 7.95505 10.3399 7.90333 10.5715 7.89719H12.7968C13.2469 7.89051 13.6863 8.03498 14.0447 8.3075C14.403 8.58002 14.6596 8.96484 14.7735 9.40041" stroke="#004D43" stroke-width="1.5" stroke-linecap="round" stroke-linejoin="round"/>
<path d="M11.8383 6.71362V17.3664" stroke="#004D43" stroke-width="1.5" stroke-linecap="round" stroke-linejoin="round"/>
</svg>
